<?xml version="1.0" encoding="UTF-8"?>
<svg xmlns="http://www.w3.org/2000/svg" xmlns:xlink="http://www.w3.org/1999/xlink" fill-opacity="1" color-rendering="auto" color-interpolation="auto" stroke="black" text-rendering="auto" stroke-linecap="square" width="692" stroke-miterlimit="10" stroke-opacity="1" shape-rendering="auto" fill="black" stroke-dasharray="none" font-weight="normal" stroke-width="1" height="739" font-family="'Dialog'" font-style="normal" stroke-linejoin="miter" font-size="12" stroke-dashoffset="0" image-rendering="auto">
  <!--Generated by ySVG 2.5-->
  <defs id="genericDefs"/>
  <g>
    <defs id="defs1">
      <clipPath clipPathUnits="userSpaceOnUse" id="clipPath1">
        <path d="M0 0 L692 0 L692 739 L0 739 L0 0 Z"/>
      </clipPath>
      <clipPath clipPathUnits="userSpaceOnUse" id="clipPath2">
        <path d="M124 -2 L585.3333 -2 L585.3333 490.6667 L124 490.6667 L124 -2 Z"/>
      </clipPath>
    </defs>
    <g fill="white" text-rendering="optimizeQuality" shape-rendering="geometricPrecision" transform="scale(1.5,1.5) translate(-124,2)" stroke="white">
      <rect x="124" width="462" height="493" y="-2" clip-path="url(#clipPath2)" stroke="none"/>
    </g>
    <g fill="red" text-rendering="optimizeQuality" shape-rendering="geometricPrecision" transform="matrix(1.5,0,0,1.5,-186,3)" stroke="red">
      <circle r="15" clip-path="url(#clipPath2)" cx="153" cy="203" stroke="none"/>
    </g>
    <g text-rendering="optimizeQuality" stroke-miterlimit="1.45" shape-rendering="geometricPrecision" font-family="sans-serif" transform="matrix(1.5,0,0,1.5,-186,3)" stroke-linecap="butt">
      <text x="145.0488" xml:space="preserve" y="207.5352" clip-path="url(#clipPath2)" stroke="none">U1</text>
      <circle fill="none" r="15" clip-path="url(#clipPath2)" cx="153" cy="203"/>
    </g>
    <g fill="aqua" text-rendering="optimizeQuality" shape-rendering="geometricPrecision" transform="matrix(1.5,0,0,1.5,-186,3)" stroke="aqua">
      <circle r="15" clip-path="url(#clipPath2)" cx="262" cy="148" stroke="none"/>
    </g>
    <g text-rendering="optimizeQuality" stroke-miterlimit="1.45" shape-rendering="geometricPrecision" font-family="sans-serif" transform="matrix(1.5,0,0,1.5,-186,3)" stroke-linecap="butt">
      <text x="254.9746" xml:space="preserve" y="152.5352" clip-path="url(#clipPath2)" stroke="none">S1</text>
      <circle fill="none" r="15" clip-path="url(#clipPath2)" cx="262" cy="148"/>
    </g>
    <g fill="aqua" text-rendering="optimizeQuality" shape-rendering="geometricPrecision" transform="matrix(1.5,0,0,1.5,-186,3)" stroke="aqua">
      <circle r="15" clip-path="url(#clipPath2)" cx="373" cy="141" stroke="none"/>
    </g>
    <g text-rendering="optimizeQuality" stroke-miterlimit="1.45" shape-rendering="geometricPrecision" font-family="sans-serif" transform="matrix(1.5,0,0,1.5,-186,3)" stroke-linecap="butt">
      <text x="365.9746" xml:space="preserve" y="145.5352" clip-path="url(#clipPath2)" stroke="none">S2</text>
      <circle fill="none" r="15" clip-path="url(#clipPath2)" cx="373" cy="141"/>
    </g>
    <g fill="aqua" text-rendering="optimizeQuality" shape-rendering="geometricPrecision" transform="matrix(1.5,0,0,1.5,-186,3)" stroke="aqua">
      <circle r="15" clip-path="url(#clipPath2)" cx="457" cy="203" stroke="none"/>
    </g>
    <g text-rendering="optimizeQuality" stroke-miterlimit="1.45" shape-rendering="geometricPrecision" font-family="sans-serif" transform="matrix(1.5,0,0,1.5,-186,3)" stroke-linecap="butt">
      <text x="449.9746" xml:space="preserve" y="207.5352" clip-path="url(#clipPath2)" stroke="none">S3</text>
      <circle fill="none" r="15" clip-path="url(#clipPath2)" cx="457" cy="203"/>
    </g>
    <g fill="aqua" text-rendering="optimizeQuality" shape-rendering="geometricPrecision" transform="matrix(1.5,0,0,1.5,-186,3)" stroke="aqua">
      <circle r="15" clip-path="url(#clipPath2)" cx="430" cy="303" stroke="none"/>
    </g>
    <g text-rendering="optimizeQuality" stroke-miterlimit="1.45" shape-rendering="geometricPrecision" font-family="sans-serif" transform="matrix(1.5,0,0,1.5,-186,3)" stroke-linecap="butt">
      <text x="422.9746" xml:space="preserve" y="307.5352" clip-path="url(#clipPath2)" stroke="none">S4</text>
      <circle fill="none" r="15" clip-path="url(#clipPath2)" cx="430" cy="303"/>
    </g>
    <g fill="aqua" text-rendering="optimizeQuality" shape-rendering="geometricPrecision" transform="matrix(1.5,0,0,1.5,-186,3)" stroke="aqua">
      <circle r="15" clip-path="url(#clipPath2)" cx="378" cy="378" stroke="none"/>
    </g>
    <g text-rendering="optimizeQuality" stroke-miterlimit="1.45" shape-rendering="geometricPrecision" font-family="sans-serif" transform="matrix(1.5,0,0,1.5,-186,3)" stroke-linecap="butt">
      <text x="370.9746" xml:space="preserve" y="382.5352" clip-path="url(#clipPath2)" stroke="none">S5</text>
      <circle fill="none" r="15" clip-path="url(#clipPath2)" cx="378" cy="378"/>
    </g>
    <g fill="aqua" text-rendering="optimizeQuality" shape-rendering="geometricPrecision" transform="matrix(1.5,0,0,1.5,-186,3)" stroke="aqua">
      <circle r="15" clip-path="url(#clipPath2)" cx="262" cy="328" stroke="none"/>
    </g>
    <g text-rendering="optimizeQuality" stroke-miterlimit="1.45" shape-rendering="geometricPrecision" font-family="sans-serif" transform="matrix(1.5,0,0,1.5,-186,3)" stroke-linecap="butt">
      <text x="254.9746" xml:space="preserve" y="332.5352" clip-path="url(#clipPath2)" stroke="none">S6</text>
      <circle fill="none" r="15" clip-path="url(#clipPath2)" cx="262" cy="328"/>
    </g>
    <g fill="aqua" text-rendering="optimizeQuality" shape-rendering="geometricPrecision" transform="matrix(1.5,0,0,1.5,-186,3)" stroke="aqua">
      <circle r="15" clip-path="url(#clipPath2)" cx="251" cy="243" stroke="none"/>
    </g>
    <g text-rendering="optimizeQuality" stroke-miterlimit="1.45" shape-rendering="geometricPrecision" font-family="sans-serif" transform="matrix(1.5,0,0,1.5,-186,3)" stroke-linecap="butt">
      <text x="243.9746" xml:space="preserve" y="247.5352" clip-path="url(#clipPath2)" stroke="none">S7</text>
      <circle fill="none" r="15" clip-path="url(#clipPath2)" cx="251" cy="243"/>
    </g>
    <g fill="red" text-rendering="optimizeQuality" shape-rendering="geometricPrecision" transform="matrix(1.5,0,0,1.5,-186,3)" stroke="red">
      <circle r="15" clip-path="url(#clipPath2)" cx="153" cy="303" stroke="none"/>
    </g>
    <g text-rendering="optimizeQuality" stroke-miterlimit="1.45" shape-rendering="geometricPrecision" font-family="sans-serif" transform="matrix(1.5,0,0,1.5,-186,3)" stroke-linecap="butt">
      <text x="145.0488" xml:space="preserve" y="307.5352" clip-path="url(#clipPath2)" stroke="none">U2</text>
      <circle fill="none" r="15" clip-path="url(#clipPath2)" cx="153" cy="303"/>
    </g>
    <g fill="red" text-rendering="optimizeQuality" shape-rendering="geometricPrecision" transform="matrix(1.5,0,0,1.5,-186,3)" stroke="red">
      <circle r="15" clip-path="url(#clipPath2)" cx="216" cy="403" stroke="none"/>
    </g>
    <g text-rendering="optimizeQuality" stroke-miterlimit="1.45" shape-rendering="geometricPrecision" font-family="sans-serif" transform="matrix(1.5,0,0,1.5,-186,3)" stroke-linecap="butt">
      <text x="208.0488" xml:space="preserve" y="407.5352" clip-path="url(#clipPath2)" stroke="none">U3</text>
      <circle fill="none" r="15" clip-path="url(#clipPath2)" cx="216" cy="403"/>
    </g>
    <g fill="red" text-rendering="optimizeQuality" shape-rendering="geometricPrecision" transform="matrix(1.5,0,0,1.5,-186,3)" stroke="red">
      <circle r="15" clip-path="url(#clipPath2)" cx="378" cy="470" stroke="none"/>
    </g>
    <g text-rendering="optimizeQuality" stroke-miterlimit="1.45" shape-rendering="geometricPrecision" font-family="sans-serif" transform="matrix(1.5,0,0,1.5,-186,3)" stroke-linecap="butt">
      <text x="370.0488" xml:space="preserve" y="474.5352" clip-path="url(#clipPath2)" stroke="none">U4</text>
      <circle fill="none" r="15" clip-path="url(#clipPath2)" cx="378" cy="470"/>
    </g>
    <g fill="red" text-rendering="optimizeQuality" shape-rendering="geometricPrecision" transform="matrix(1.5,0,0,1.5,-186,3)" stroke="red">
      <circle r="15" clip-path="url(#clipPath2)" cx="304" cy="438" stroke="none"/>
    </g>
    <g text-rendering="optimizeQuality" stroke-miterlimit="1.45" shape-rendering="geometricPrecision" font-family="sans-serif" transform="matrix(1.5,0,0,1.5,-186,3)" stroke-linecap="butt">
      <text x="296.0488" xml:space="preserve" y="442.5352" clip-path="url(#clipPath2)" stroke="none">U5</text>
      <circle fill="none" r="15" clip-path="url(#clipPath2)" cx="304" cy="438"/>
    </g>
    <g fill="red" text-rendering="optimizeQuality" shape-rendering="geometricPrecision" transform="matrix(1.5,0,0,1.5,-186,3)" stroke="red">
      <circle r="15" clip-path="url(#clipPath2)" cx="438" cy="440" stroke="none"/>
    </g>
    <g text-rendering="optimizeQuality" stroke-miterlimit="1.45" shape-rendering="geometricPrecision" font-family="sans-serif" transform="matrix(1.5,0,0,1.5,-186,3)" stroke-linecap="butt">
      <text x="430.0488" xml:space="preserve" y="444.5352" clip-path="url(#clipPath2)" stroke="none">U6</text>
      <circle fill="none" r="15" clip-path="url(#clipPath2)" cx="438" cy="440"/>
    </g>
    <g fill="red" text-rendering="optimizeQuality" shape-rendering="geometricPrecision" transform="matrix(1.5,0,0,1.5,-186,3)" stroke="red">
      <circle r="15" clip-path="url(#clipPath2)" cx="462" cy="388" stroke="none"/>
    </g>
    <g text-rendering="optimizeQuality" stroke-miterlimit="1.45" shape-rendering="geometricPrecision" font-family="sans-serif" transform="matrix(1.5,0,0,1.5,-186,3)" stroke-linecap="butt">
      <text x="454.0488" xml:space="preserve" y="392.5352" clip-path="url(#clipPath2)" stroke="none">U7</text>
      <circle fill="none" r="15" clip-path="url(#clipPath2)" cx="462" cy="388"/>
    </g>
    <g fill="red" text-rendering="optimizeQuality" shape-rendering="geometricPrecision" transform="matrix(1.5,0,0,1.5,-186,3)" stroke="red">
      <circle r="15" clip-path="url(#clipPath2)" cx="504" cy="328" stroke="none"/>
    </g>
    <g text-rendering="optimizeQuality" stroke-miterlimit="1.45" shape-rendering="geometricPrecision" font-family="sans-serif" transform="matrix(1.5,0,0,1.5,-186,3)" stroke-linecap="butt">
      <text x="496.0488" xml:space="preserve" y="332.5352" clip-path="url(#clipPath2)" stroke="none">U8</text>
      <circle fill="none" r="15" clip-path="url(#clipPath2)" cx="504" cy="328"/>
    </g>
    <g fill="red" text-rendering="optimizeQuality" shape-rendering="geometricPrecision" transform="matrix(1.5,0,0,1.5,-186,3)" stroke="red">
      <circle r="15" clip-path="url(#clipPath2)" cx="552" cy="292" stroke="none"/>
    </g>
    <g text-rendering="optimizeQuality" stroke-miterlimit="1.45" shape-rendering="geometricPrecision" font-family="sans-serif" transform="matrix(1.5,0,0,1.5,-186,3)" stroke-linecap="butt">
      <text x="544.0488" xml:space="preserve" y="296.5352" clip-path="url(#clipPath2)" stroke="none">U9</text>
      <circle fill="none" r="15" clip-path="url(#clipPath2)" cx="552" cy="292"/>
    </g>
    <g fill="red" text-rendering="optimizeQuality" shape-rendering="geometricPrecision" transform="matrix(1.5,0,0,1.5,-186,3)" stroke="red">
      <circle r="15" clip-path="url(#clipPath2)" cx="544" cy="209.5" stroke="none"/>
    </g>
    <g text-rendering="optimizeQuality" stroke-miterlimit="1.45" shape-rendering="geometricPrecision" font-family="sans-serif" transform="matrix(1.5,0,0,1.5,-186,3)" stroke-linecap="butt">
      <text x="532.2549" xml:space="preserve" y="214.0352" clip-path="url(#clipPath2)" stroke="none">U10</text>
      <circle fill="none" r="15" clip-path="url(#clipPath2)" cx="544" cy="209.5"/>
    </g>
    <g fill="red" text-rendering="optimizeQuality" shape-rendering="geometricPrecision" transform="matrix(1.5,0,0,1.5,-186,3)" stroke="red">
      <circle r="15" clip-path="url(#clipPath2)" cx="560" cy="127" stroke="none"/>
    </g>
    <g text-rendering="optimizeQuality" stroke-miterlimit="1.45" shape-rendering="geometricPrecision" font-family="sans-serif" transform="matrix(1.5,0,0,1.5,-186,3)" stroke-linecap="butt">
      <text x="548.2549" xml:space="preserve" y="131.5352" clip-path="url(#clipPath2)" stroke="none">U11</text>
      <circle fill="none" r="15" clip-path="url(#clipPath2)" cx="560" cy="127"/>
    </g>
    <g fill="red" text-rendering="optimizeQuality" shape-rendering="geometricPrecision" transform="matrix(1.5,0,0,1.5,-186,3)" stroke="red">
      <circle r="15" clip-path="url(#clipPath2)" cx="486" cy="62" stroke="none"/>
    </g>
    <g text-rendering="optimizeQuality" stroke-miterlimit="1.45" shape-rendering="geometricPrecision" font-family="sans-serif" transform="matrix(1.5,0,0,1.5,-186,3)" stroke-linecap="butt">
      <text x="474.2549" xml:space="preserve" y="66.5352" clip-path="url(#clipPath2)" stroke="none">U12</text>
      <circle fill="none" r="15" clip-path="url(#clipPath2)" cx="486" cy="62"/>
    </g>
    <g fill="red" text-rendering="optimizeQuality" shape-rendering="geometricPrecision" transform="matrix(1.5,0,0,1.5,-186,3)" stroke="red">
      <circle r="15" clip-path="url(#clipPath2)" cx="323" cy="38" stroke="none"/>
    </g>
    <g text-rendering="optimizeQuality" stroke-miterlimit="1.45" shape-rendering="geometricPrecision" font-family="sans-serif" transform="matrix(1.5,0,0,1.5,-186,3)" stroke-linecap="butt">
      <text x="311.2549" xml:space="preserve" y="42.5352" clip-path="url(#clipPath2)" stroke="none">U13</text>
      <circle fill="none" r="15" clip-path="url(#clipPath2)" cx="323" cy="38"/>
    </g>
    <g fill="red" text-rendering="optimizeQuality" shape-rendering="geometricPrecision" transform="matrix(1.5,0,0,1.5,-186,3)" stroke="red">
      <circle r="15" clip-path="url(#clipPath2)" cx="238" cy="83" stroke="none"/>
    </g>
    <g text-rendering="optimizeQuality" stroke-miterlimit="1.45" shape-rendering="geometricPrecision" font-family="sans-serif" transform="matrix(1.5,0,0,1.5,-186,3)" stroke-linecap="butt">
      <text x="226.2549" xml:space="preserve" y="87.5352" clip-path="url(#clipPath2)" stroke="none">U14</text>
      <circle fill="none" r="15" clip-path="url(#clipPath2)" cx="238" cy="83"/>
    </g>
    <g fill="rgb(204,153,255)" text-rendering="optimizeQuality" shape-rendering="geometricPrecision" transform="matrix(1.5,0,0,1.5,-186,3)" stroke="rgb(204,153,255)">
      <circle r="15" clip-path="url(#clipPath2)" cx="311" cy="208" stroke="none"/>
    </g>
    <g text-rendering="optimizeQuality" stroke-miterlimit="1.45" shape-rendering="geometricPrecision" font-family="sans-serif" transform="matrix(1.5,0,0,1.5,-186,3)" stroke-linecap="butt">
      <text x="303.0664" xml:space="preserve" y="212.5352" clip-path="url(#clipPath2)" stroke="none">A1</text>
      <circle fill="none" r="15" clip-path="url(#clipPath2)" cx="311" cy="208"/>
    </g>
    <g fill="rgb(204,153,255)" text-rendering="optimizeQuality" shape-rendering="geometricPrecision" transform="matrix(1.5,0,0,1.5,-186,3)" stroke="rgb(204,153,255)">
      <circle r="15" clip-path="url(#clipPath2)" cx="384" cy="213" stroke="none"/>
    </g>
    <g text-rendering="optimizeQuality" stroke-miterlimit="1.45" shape-rendering="geometricPrecision" font-family="sans-serif" transform="matrix(1.5,0,0,1.5,-186,3)" stroke-linecap="butt">
      <text x="376.0664" xml:space="preserve" y="217.5352" clip-path="url(#clipPath2)" stroke="none">A3</text>
      <circle fill="none" r="15" clip-path="url(#clipPath2)" cx="384" cy="213"/>
    </g>
    <g fill="rgb(204,153,255)" text-rendering="optimizeQuality" shape-rendering="geometricPrecision" transform="matrix(1.5,0,0,1.5,-186,3)" stroke="rgb(204,153,255)">
      <circle r="15" clip-path="url(#clipPath2)" cx="350" cy="285" stroke="none"/>
    </g>
    <g text-rendering="optimizeQuality" stroke-miterlimit="1.45" shape-rendering="geometricPrecision" font-family="sans-serif" transform="matrix(1.5,0,0,1.5,-186,3)" stroke-linecap="butt">
      <text x="342.0664" xml:space="preserve" y="289.5352" clip-path="url(#clipPath2)" stroke="none">A2</text>
      <circle fill="none" r="15" clip-path="url(#clipPath2)" cx="350" cy="285"/>
      <path fill="none" d="M166.3917 196.2427 L241.466 158.3612" clip-path="url(#clipPath2)"/>
      <path d="M248.6083 154.7573 L235.6424 155.6992 L240.5732 158.8117 L240.1473 164.627 Z" clip-path="url(#clipPath2)" stroke="none"/>
      <path fill="none" d="M168 203 L242.3769 203 L254.2711 169.6625" clip-path="url(#clipPath2)"/>
      <path d="M256.9594 162.1277 L248.2178 171.7497 L253.9351 170.6044 L257.6363 175.1101 Z" clip-path="url(#clipPath2)" stroke="none"/>
      <path fill="none" d="M162.8584 214.3054 L246.8839 310.665" clip-path="url(#clipPath2)"/>
      <path d="M252.1416 316.6945 L248.0235 304.3641 L246.2266 309.9113 L240.4865 310.9363 Z" clip-path="url(#clipPath2)" stroke="none"/>
      <path fill="none" d="M155.6596 217.7623 L166.3769 277.25 L241.684 317.2177" clip-path="url(#clipPath2)"/>
      <path d="M248.7504 320.968 L240.4947 310.926 L240.8007 316.7489 L235.8067 319.759 Z" clip-path="url(#clipPath2)" stroke="none"/>
      <path fill="none" d="M166.8877 208.6685 L229.7055 234.3084" clip-path="url(#clipPath2)"/>
      <path d="M237.1123 237.3315 L227.8916 228.1675 L228.7797 233.9305 L224.1126 237.426 Z" clip-path="url(#clipPath2)" stroke="none"/>
      <path fill="none" d="M167.6204 306.3533 L239.5821 322.8583" clip-path="url(#clipPath2)"/>
      <path d="M247.3796 324.6467 L236.8011 317.0906 L238.6074 322.6347 L234.5656 326.8375 Z" clip-path="url(#clipPath2)" stroke="none"/>
      <path fill="none" d="M223.8424 390.2134 L249.9749 347.6061" clip-path="url(#clipPath2)"/>
      <path d="M254.1576 340.7866 L243.6214 348.4017 L249.4521 348.4585 L252.1458 353.6299 Z" clip-path="url(#clipPath2)" stroke="none"/>
      <path fill="none" d="M378 455 L378 401" clip-path="url(#clipPath2)"/>
      <path d="M378 393 L373 405 L378 402 L383 405 Z" clip-path="url(#clipPath2)" stroke="none"/>
      <path fill="none" d="M298.6495 423.9867 L270.2041 349.487" clip-path="url(#clipPath2)"/>
      <path d="M267.3505 342.0133 L266.9598 355.0074 L270.5608 350.4212 L276.302 351.4404 Z" clip-path="url(#clipPath2)" stroke="none"/>
      <path fill="none" d="M315.6513 428.553 L360.1346 392.4854" clip-path="url(#clipPath2)"/>
      <path d="M366.3487 387.447 L353.8786 391.1209 L359.3578 393.1152 L360.1766 398.8884 Z" clip-path="url(#clipPath2)" stroke="none"/>
      <path fill="none" d="M310.2575 424.3675 L326.3769 389.25 L355.5274 382.8973" clip-path="url(#clipPath2)"/>
      <path d="M363.344 381.1939 L350.5545 378.8637 L354.5504 383.1103 L352.6838 388.6344 Z" clip-path="url(#clipPath2)" stroke="none"/>
      <path fill="none" d="M427.5687 429.221 L393.9947 394.5279" clip-path="url(#clipPath2)"/>
      <path d="M388.4313 388.779 L393.1833 400.8794 L394.6901 395.2465 L400.3694 393.9252 Z" clip-path="url(#clipPath2)" stroke="none"/>
      <path fill="none" d="M447.1052 386.2268 L400.8387 380.7189" clip-path="url(#clipPath2)"/>
      <path d="M392.8948 379.7732 L404.2196 386.1567 L401.8317 380.8371 L405.4018 376.2268 Z" clip-path="url(#clipPath2)" stroke="none"/>
      <path fill="none" d="M490.0576 333.5327 L399.3783 369.5165" clip-path="url(#clipPath2)"/>
      <path d="M391.9424 372.4673 L404.9405 372.6886 L400.3078 369.1477 L401.252 363.3937 Z" clip-path="url(#clipPath2)" stroke="none"/>
      <path fill="none" d="M541.0533 281.7447 L473.7849 218.7248" clip-path="url(#clipPath2)"/>
      <path d="M467.9467 213.2553 L473.2855 225.1084 L474.5146 219.4084 L480.1224 217.8106 Z" clip-path="url(#clipPath2)" stroke="none"/>
      <path fill="none" d="M537.3151 288.9416 L476.3769 276.25 L462.8819 225.2352" clip-path="url(#clipPath2)"/>
      <path d="M460.836 217.5012 L459.0711 230.3808 L463.1376 226.2019 L468.7386 227.8235 Z" clip-path="url(#clipPath2)" stroke="none"/>
      <path fill="none" d="M529.0417 208.3824 L479.9361 204.7136" clip-path="url(#clipPath2)"/>
      <path d="M471.9583 204.1176 L483.5524 209.9977 L480.9333 204.7881 L484.2975 200.0255 Z" clip-path="url(#clipPath2)" stroke="none"/>
      <path fill="none" d="M547.9301 135.906 L475.5072 189.3442" clip-path="url(#clipPath2)"/>
      <path d="M469.0699 194.094 L481.6945 190.9925 L476.3119 188.7504 L475.7572 182.9459 Z" clip-path="url(#clipPath2)" stroke="none"/>
      <path fill="none" d="M482.9781 76.6925 L461.6335 180.4716" clip-path="url(#clipPath2)"/>
      <path d="M460.0219 188.3075 L467.3368 177.5609 L461.835 179.4921 L457.5419 175.5463 Z" clip-path="url(#clipPath2)" stroke="none"/>
      <path fill="none" d="M473.7064 70.5946 L391.8502 127.8216" clip-path="url(#clipPath2)"/>
      <path d="M385.2936 132.4054 L397.9933 129.6275 L392.6697 127.2486 L392.2636 121.4318 Z" clip-path="url(#clipPath2)" stroke="none"/>
      <path fill="none" d="M471.9966 67.3763 L283.4719 139.7563" clip-path="url(#clipPath2)"/>
      <path d="M276.0034 142.6237 L288.9982 142.9904 L284.4055 139.3979 L285.414 133.6548 Z" clip-path="url(#clipPath2)" stroke="none"/>
      <path fill="none" d="M329.5505 51.4941 L362.9558 120.3091" clip-path="url(#clipPath2)"/>
      <path d="M366.4495 127.5059 L365.7071 114.5271 L362.5191 119.4095 L356.711 118.8941 Z" clip-path="url(#clipPath2)" stroke="none"/>
      <path fill="none" d="M335.9116 45.6349 L389.3769 77.25 L378.7227 118.7233" clip-path="url(#clipPath2)"/>
      <path d="M376.7322 126.4717 L384.5607 116.0932 L378.9715 117.7548 L374.8752 113.605 Z" clip-path="url(#clipPath2)" stroke="none"/>
      <path fill="none" d="M243.1956 97.0714 L254.0334 126.4238" clip-path="url(#clipPath2)"/>
      <path d="M256.8044 133.9286 L257.3384 120.9395 L253.687 125.4857 L247.9574 124.4033 Z" clip-path="url(#clipPath2)" stroke="none"/>
      <path fill="none" d="M251.7819 88.9211 L351.8678 131.921" clip-path="url(#clipPath2)"/>
      <path d="M359.2181 135.0789 L350.1663 125.748 L350.949 131.5262 L346.2189 134.936 Z" clip-path="url(#clipPath2)" stroke="none"/>
      <path fill="none" d="M263.9567 235.4419 L291.1331 219.589" clip-path="url(#clipPath2)"/>
      <path d="M298.0433 215.5581 L285.1586 217.2856 L290.2693 220.0929 L290.1973 225.9234 Z" clip-path="url(#clipPath2)" stroke="none"/>
      <path fill="none" d="M271.488 159.618 L296.4517 190.1858" clip-path="url(#clipPath2)"/>
      <path d="M301.512 196.382 L297.7942 183.925 L295.8192 189.4112 L290.0489 190.2503 Z" clip-path="url(#clipPath2)" stroke="none"/>
      <path fill="none" d="M362.8122 152.0094 L326.6214 191.1189" clip-path="url(#clipPath2)"/>
      <path d="M321.1878 196.9905 L333.0079 191.5789 L327.3005 190.3849 L325.6683 184.787 Z" clip-path="url(#clipPath2)" stroke="none"/>
      <path fill="none" d="M378.5451 363.0099 L383.1642 235.9848" clip-path="url(#clipPath2)"/>
      <path d="M383.4549 227.9901 L378.0221 239.8005 L383.1278 236.9841 L388.0155 240.1638 Z" clip-path="url(#clipPath2)" stroke="none"/>
      <path fill="none" d="M423.1733 289.6435 L394.4676 233.48" clip-path="url(#clipPath2)"/>
      <path d="M390.8267 226.3565 L391.8358 239.3173 L394.9227 234.3704 L400.7402 234.7662 Z" clip-path="url(#clipPath2)" stroke="none"/>
      <path fill="none" d="M265.6324 239.6995 L361.5637 218.0608" clip-path="url(#clipPath2)"/>
      <path d="M369.3676 216.3005 L356.5615 214.0635 L360.5882 218.2809 L358.7619 223.8184 Z" clip-path="url(#clipPath2)" stroke="none"/>
      <path fill="none" d="M375.2654 155.8279 L380.5264 190.2638" clip-path="url(#clipPath2)"/>
      <path d="M381.7346 198.172 L384.865 185.5546 L380.3754 189.2753 L374.9797 187.0648 Z" clip-path="url(#clipPath2)" stroke="none"/>
      <path fill="none" d="M442.1388 205.0358 L406.7872 209.8785" clip-path="url(#clipPath2)"/>
      <path d="M398.8612 210.9642 L411.4288 214.2893 L407.778 209.7428 L410.0716 204.3819 Z" clip-path="url(#clipPath2)" stroke="none"/>
      <path fill="none" d="M275.4771 321.4146 L329.3351 295.0976" clip-path="url(#clipPath2)"/>
      <path d="M336.5229 291.5854 L323.5461 292.3614 L328.4366 295.5367 L327.9364 301.3461 Z" clip-path="url(#clipPath2)" stroke="none"/>
      <path fill="none" d="M373.6756 363.6369 L356.6307 307.0235" clip-path="url(#clipPath2)"/>
      <path d="M354.3244 299.3631 L352.9962 312.2951 L356.919 307.981 L362.5716 309.4121 Z" clip-path="url(#clipPath2)" stroke="none"/>
      <path fill="none" d="M264.8087 248.8582 L328.8266 276.0174" clip-path="url(#clipPath2)"/>
      <path d="M336.1913 279.1418 L327.097 269.8523 L327.906 275.6268 L323.1916 279.0581 Z" clip-path="url(#clipPath2)" stroke="none"/>
    </g>
  </g>
</svg>
